<mxfile host="app.diagrams.net" agent="Mozilla/5.0 (Windows NT 10.0; Win64; x64) AppleWebKit/537.36 (KHTML, like Gecko) Chrome/127.0.0.0 Safari/537.36" version="24.7.6">
  <diagram id="C5RBs43oDa-KdzZeNtuy" name="Page-1">
    <mxGraphModel dx="1366" dy="735" grid="1" gridSize="10" guides="1" tooltips="1" connect="1" arrows="1" fold="1" page="1" pageScale="1" pageWidth="827" pageHeight="1169" background="#ffffff" math="0" shadow="0">
      <root>
        <mxCell id="WIyWlLk6GJQsqaUBKTNV-0" />
        <mxCell id="WIyWlLk6GJQsqaUBKTNV-1" parent="WIyWlLk6GJQsqaUBKTNV-0" />
        <mxCell id="RG922FBDrMQfjiyfUO0k-10" value="" style="edgeStyle=orthogonalEdgeStyle;rounded=0;orthogonalLoop=1;jettySize=auto;html=1;" edge="1" parent="WIyWlLk6GJQsqaUBKTNV-1" source="RG922FBDrMQfjiyfUO0k-1" target="RG922FBDrMQfjiyfUO0k-2">
          <mxGeometry relative="1" as="geometry" />
        </mxCell>
        <mxCell id="RG922FBDrMQfjiyfUO0k-1" value="START" style="strokeWidth=2;html=1;shape=mxgraph.flowchart.terminator;whiteSpace=wrap;" vertex="1" parent="WIyWlLk6GJQsqaUBKTNV-1">
          <mxGeometry x="50" y="10" width="100" height="40" as="geometry" />
        </mxCell>
        <mxCell id="RG922FBDrMQfjiyfUO0k-5" value="" style="edgeStyle=orthogonalEdgeStyle;rounded=0;orthogonalLoop=1;jettySize=auto;html=1;" edge="1" parent="WIyWlLk6GJQsqaUBKTNV-1" source="RG922FBDrMQfjiyfUO0k-2" target="RG922FBDrMQfjiyfUO0k-4">
          <mxGeometry relative="1" as="geometry" />
        </mxCell>
        <mxCell id="RG922FBDrMQfjiyfUO0k-2" value="Klik&lt;div&gt;&quot;Mulai Sewa Mobil&quot;&lt;/div&gt;" style="html=1;strokeWidth=2;shape=manualInput;whiteSpace=wrap;rounded=1;size=27;arcSize=11;align=center;" vertex="1" parent="WIyWlLk6GJQsqaUBKTNV-1">
          <mxGeometry x="50" y="90" width="100" height="80" as="geometry" />
        </mxCell>
        <mxCell id="RG922FBDrMQfjiyfUO0k-7" value="" style="edgeStyle=orthogonalEdgeStyle;rounded=0;orthogonalLoop=1;jettySize=auto;html=1;" edge="1" parent="WIyWlLk6GJQsqaUBKTNV-1" source="RG922FBDrMQfjiyfUO0k-4" target="RG922FBDrMQfjiyfUO0k-6">
          <mxGeometry relative="1" as="geometry" />
        </mxCell>
        <mxCell id="RG922FBDrMQfjiyfUO0k-4" value="Pindah halaman cari mobil" style="rounded=1;whiteSpace=wrap;html=1;absoluteArcSize=1;arcSize=14;strokeWidth=2;" vertex="1" parent="WIyWlLk6GJQsqaUBKTNV-1">
          <mxGeometry x="50" y="210" width="100" height="60" as="geometry" />
        </mxCell>
        <mxCell id="RG922FBDrMQfjiyfUO0k-42" value="" style="edgeStyle=orthogonalEdgeStyle;rounded=0;orthogonalLoop=1;jettySize=auto;html=1;" edge="1" parent="WIyWlLk6GJQsqaUBKTNV-1" source="RG922FBDrMQfjiyfUO0k-6" target="RG922FBDrMQfjiyfUO0k-41">
          <mxGeometry relative="1" as="geometry" />
        </mxCell>
        <mxCell id="RG922FBDrMQfjiyfUO0k-6" value="Klik&lt;div&gt;&quot;Pilih&amp;nbsp;&lt;span style=&quot;background-color: initial;&quot;&gt;Tipe Driver&quot;&lt;/span&gt;&lt;/div&gt;" style="html=1;strokeWidth=2;shape=manualInput;whiteSpace=wrap;rounded=1;size=27;arcSize=11;align=center;" vertex="1" parent="WIyWlLk6GJQsqaUBKTNV-1">
          <mxGeometry x="50" y="310" width="100" height="80" as="geometry" />
        </mxCell>
        <mxCell id="RG922FBDrMQfjiyfUO0k-61" value="" style="edgeStyle=orthogonalEdgeStyle;rounded=0;orthogonalLoop=1;jettySize=auto;html=1;" edge="1" parent="WIyWlLk6GJQsqaUBKTNV-1" source="RG922FBDrMQfjiyfUO0k-30" target="RG922FBDrMQfjiyfUO0k-60">
          <mxGeometry relative="1" as="geometry" />
        </mxCell>
        <mxCell id="RG922FBDrMQfjiyfUO0k-30" value="Klik&lt;div&gt;&quot;Pilih&amp;nbsp;&lt;span style=&quot;background-color: initial;&quot;&gt;Waktu&quot;&lt;/span&gt;&lt;/div&gt;" style="html=1;strokeWidth=2;shape=manualInput;whiteSpace=wrap;rounded=1;size=27;arcSize=11;align=center;" vertex="1" parent="WIyWlLk6GJQsqaUBKTNV-1">
          <mxGeometry x="300" y="90" width="100" height="80" as="geometry" />
        </mxCell>
        <mxCell id="RG922FBDrMQfjiyfUO0k-40" value="END" style="strokeWidth=2;html=1;shape=mxgraph.flowchart.terminator;whiteSpace=wrap;" vertex="1" parent="WIyWlLk6GJQsqaUBKTNV-1">
          <mxGeometry x="464" y="330" width="100" height="40" as="geometry" />
        </mxCell>
        <mxCell id="RG922FBDrMQfjiyfUO0k-44" value="" style="edgeStyle=orthogonalEdgeStyle;rounded=0;orthogonalLoop=1;jettySize=auto;html=1;" edge="1" parent="WIyWlLk6GJQsqaUBKTNV-1" source="RG922FBDrMQfjiyfUO0k-41" target="RG922FBDrMQfjiyfUO0k-43">
          <mxGeometry relative="1" as="geometry" />
        </mxCell>
        <mxCell id="RG922FBDrMQfjiyfUO0k-41" value="Pilihan&lt;div&gt;Tipe Driver&lt;/div&gt;" style="strokeWidth=2;html=1;shape=mxgraph.flowchart.display;whiteSpace=wrap;" vertex="1" parent="WIyWlLk6GJQsqaUBKTNV-1">
          <mxGeometry x="50" y="430" width="100" height="60" as="geometry" />
        </mxCell>
        <mxCell id="RG922FBDrMQfjiyfUO0k-46" value="" style="edgeStyle=orthogonalEdgeStyle;rounded=0;orthogonalLoop=1;jettySize=auto;html=1;" edge="1" parent="WIyWlLk6GJQsqaUBKTNV-1" source="RG922FBDrMQfjiyfUO0k-43" target="RG922FBDrMQfjiyfUO0k-45">
          <mxGeometry relative="1" as="geometry" />
        </mxCell>
        <mxCell id="RG922FBDrMQfjiyfUO0k-43" value="Klik&lt;br&gt;salah satu&lt;div&gt;option&lt;/div&gt;" style="html=1;strokeWidth=2;shape=manualInput;whiteSpace=wrap;rounded=1;size=27;arcSize=11;align=center;" vertex="1" parent="WIyWlLk6GJQsqaUBKTNV-1">
          <mxGeometry x="50" y="520" width="100" height="80" as="geometry" />
        </mxCell>
        <mxCell id="RG922FBDrMQfjiyfUO0k-48" value="" style="edgeStyle=orthogonalEdgeStyle;rounded=0;orthogonalLoop=1;jettySize=auto;html=1;" edge="1" parent="WIyWlLk6GJQsqaUBKTNV-1" source="RG922FBDrMQfjiyfUO0k-45" target="RG922FBDrMQfjiyfUO0k-47">
          <mxGeometry relative="1" as="geometry" />
        </mxCell>
        <mxCell id="RG922FBDrMQfjiyfUO0k-45" value="Klik&lt;div&gt;&quot;Pilih&amp;nbsp;&lt;span style=&quot;background-color: initial;&quot;&gt;Tanggal&quot;&lt;/span&gt;&lt;/div&gt;" style="html=1;strokeWidth=2;shape=manualInput;whiteSpace=wrap;rounded=1;size=27;arcSize=11;align=center;" vertex="1" parent="WIyWlLk6GJQsqaUBKTNV-1">
          <mxGeometry x="50" y="630" width="100" height="80" as="geometry" />
        </mxCell>
        <mxCell id="RG922FBDrMQfjiyfUO0k-50" value="" style="edgeStyle=orthogonalEdgeStyle;rounded=0;orthogonalLoop=1;jettySize=auto;html=1;" edge="1" parent="WIyWlLk6GJQsqaUBKTNV-1" source="RG922FBDrMQfjiyfUO0k-47" target="RG922FBDrMQfjiyfUO0k-49">
          <mxGeometry relative="1" as="geometry" />
        </mxCell>
        <mxCell id="RG922FBDrMQfjiyfUO0k-47" value="Calendar Selection" style="strokeWidth=2;html=1;shape=mxgraph.flowchart.display;whiteSpace=wrap;" vertex="1" parent="WIyWlLk6GJQsqaUBKTNV-1">
          <mxGeometry x="50" y="740" width="100" height="60" as="geometry" />
        </mxCell>
        <mxCell id="RG922FBDrMQfjiyfUO0k-52" value="" style="edgeStyle=orthogonalEdgeStyle;rounded=0;orthogonalLoop=1;jettySize=auto;html=1;" edge="1" parent="WIyWlLk6GJQsqaUBKTNV-1" source="RG922FBDrMQfjiyfUO0k-49" target="RG922FBDrMQfjiyfUO0k-51">
          <mxGeometry relative="1" as="geometry" />
        </mxCell>
        <mxCell id="RG922FBDrMQfjiyfUO0k-49" value="Pilih&lt;div&gt;tanggal yang sesuai&lt;/div&gt;" style="html=1;strokeWidth=2;shape=manualInput;whiteSpace=wrap;rounded=1;size=27;arcSize=11;align=center;" vertex="1" parent="WIyWlLk6GJQsqaUBKTNV-1">
          <mxGeometry x="50" y="830" width="100" height="80" as="geometry" />
        </mxCell>
        <mxCell id="RG922FBDrMQfjiyfUO0k-55" value="" style="edgeStyle=orthogonalEdgeStyle;rounded=0;orthogonalLoop=1;jettySize=auto;html=1;" edge="1" parent="WIyWlLk6GJQsqaUBKTNV-1" source="RG922FBDrMQfjiyfUO0k-51" target="RG922FBDrMQfjiyfUO0k-53">
          <mxGeometry relative="1" as="geometry" />
        </mxCell>
        <mxCell id="RG922FBDrMQfjiyfUO0k-51" value="Klik Button&lt;div&gt;&quot;Pilih Tanggal&quot;&lt;/div&gt;" style="html=1;strokeWidth=2;shape=manualInput;whiteSpace=wrap;rounded=1;size=27;arcSize=11;align=center;" vertex="1" parent="WIyWlLk6GJQsqaUBKTNV-1">
          <mxGeometry x="50" y="950" width="100" height="80" as="geometry" />
        </mxCell>
        <mxCell id="RG922FBDrMQfjiyfUO0k-53" value="A" style="verticalLabelPosition=bottom;verticalAlign=top;html=1;shape=mxgraph.flowchart.on-page_reference;" vertex="1" parent="WIyWlLk6GJQsqaUBKTNV-1">
          <mxGeometry x="80" y="1070" width="40" height="40" as="geometry" />
        </mxCell>
        <mxCell id="RG922FBDrMQfjiyfUO0k-57" value="" style="edgeStyle=orthogonalEdgeStyle;rounded=0;orthogonalLoop=1;jettySize=auto;html=1;" edge="1" parent="WIyWlLk6GJQsqaUBKTNV-1" source="RG922FBDrMQfjiyfUO0k-56" target="RG922FBDrMQfjiyfUO0k-30">
          <mxGeometry relative="1" as="geometry" />
        </mxCell>
        <mxCell id="RG922FBDrMQfjiyfUO0k-56" value="A" style="verticalLabelPosition=bottom;verticalAlign=top;html=1;shape=mxgraph.flowchart.on-page_reference;" vertex="1" parent="WIyWlLk6GJQsqaUBKTNV-1">
          <mxGeometry x="330" y="10" width="40" height="40" as="geometry" />
        </mxCell>
        <mxCell id="RG922FBDrMQfjiyfUO0k-66" value="" style="edgeStyle=orthogonalEdgeStyle;rounded=0;orthogonalLoop=1;jettySize=auto;html=1;" edge="1" parent="WIyWlLk6GJQsqaUBKTNV-1" source="RG922FBDrMQfjiyfUO0k-58" target="RG922FBDrMQfjiyfUO0k-65">
          <mxGeometry relative="1" as="geometry" />
        </mxCell>
        <mxCell id="RG922FBDrMQfjiyfUO0k-58" value="Klik salah satu pilihan waktu" style="html=1;strokeWidth=2;shape=manualInput;whiteSpace=wrap;rounded=1;size=27;arcSize=11;align=center;" vertex="1" parent="WIyWlLk6GJQsqaUBKTNV-1">
          <mxGeometry x="300" y="310" width="100" height="80" as="geometry" />
        </mxCell>
        <mxCell id="RG922FBDrMQfjiyfUO0k-62" value="" style="edgeStyle=orthogonalEdgeStyle;rounded=0;orthogonalLoop=1;jettySize=auto;html=1;" edge="1" parent="WIyWlLk6GJQsqaUBKTNV-1" source="RG922FBDrMQfjiyfUO0k-60" target="RG922FBDrMQfjiyfUO0k-58">
          <mxGeometry relative="1" as="geometry" />
        </mxCell>
        <mxCell id="RG922FBDrMQfjiyfUO0k-60" value="Pilihan&lt;div&gt;Waktu&lt;/div&gt;" style="strokeWidth=2;html=1;shape=mxgraph.flowchart.display;whiteSpace=wrap;" vertex="1" parent="WIyWlLk6GJQsqaUBKTNV-1">
          <mxGeometry x="300" y="210" width="100" height="60" as="geometry" />
        </mxCell>
        <mxCell id="RG922FBDrMQfjiyfUO0k-75" value="no" style="edgeStyle=orthogonalEdgeStyle;rounded=0;orthogonalLoop=1;jettySize=auto;html=1;exitX=1;exitY=0.5;exitDx=0;exitDy=0;entryX=1;entryY=0.5;entryDx=0;entryDy=0;" edge="1" parent="WIyWlLk6GJQsqaUBKTNV-1" source="RG922FBDrMQfjiyfUO0k-65" target="RG922FBDrMQfjiyfUO0k-72">
          <mxGeometry relative="1" as="geometry" />
        </mxCell>
        <mxCell id="RG922FBDrMQfjiyfUO0k-78" value="yes" style="edgeStyle=orthogonalEdgeStyle;rounded=0;orthogonalLoop=1;jettySize=auto;html=1;" edge="1" parent="WIyWlLk6GJQsqaUBKTNV-1" source="RG922FBDrMQfjiyfUO0k-65" target="RG922FBDrMQfjiyfUO0k-77">
          <mxGeometry relative="1" as="geometry" />
        </mxCell>
        <mxCell id="RG922FBDrMQfjiyfUO0k-65" value="Isi&lt;div&gt;&quot;Jumlah Penumpang&quot;&lt;/div&gt;" style="rhombus;whiteSpace=wrap;html=1;strokeWidth=2;rounded=1;arcSize=11;" vertex="1" parent="WIyWlLk6GJQsqaUBKTNV-1">
          <mxGeometry x="310" y="430" width="80" height="80" as="geometry" />
        </mxCell>
        <mxCell id="RG922FBDrMQfjiyfUO0k-82" value="" style="edgeStyle=orthogonalEdgeStyle;rounded=0;orthogonalLoop=1;jettySize=auto;html=1;entryX=0.5;entryY=0;entryDx=0;entryDy=0;entryPerimeter=0;" edge="1" parent="WIyWlLk6GJQsqaUBKTNV-1" source="RG922FBDrMQfjiyfUO0k-68" target="RG922FBDrMQfjiyfUO0k-84">
          <mxGeometry relative="1" as="geometry">
            <mxPoint x="350" y="950" as="targetPoint" />
          </mxGeometry>
        </mxCell>
        <mxCell id="RG922FBDrMQfjiyfUO0k-68" value="Cari data&lt;div&gt;sesuai input&lt;/div&gt;" style="whiteSpace=wrap;html=1;strokeWidth=2;rounded=1;arcSize=11;" vertex="1" parent="WIyWlLk6GJQsqaUBKTNV-1">
          <mxGeometry x="290" y="840" width="120" height="60" as="geometry" />
        </mxCell>
        <mxCell id="RG922FBDrMQfjiyfUO0k-74" value="" style="edgeStyle=orthogonalEdgeStyle;rounded=0;orthogonalLoop=1;jettySize=auto;html=1;" edge="1" parent="WIyWlLk6GJQsqaUBKTNV-1" source="RG922FBDrMQfjiyfUO0k-72" target="RG922FBDrMQfjiyfUO0k-68">
          <mxGeometry relative="1" as="geometry" />
        </mxCell>
        <mxCell id="RG922FBDrMQfjiyfUO0k-72" value="Klik&lt;div&gt;&quot;Cari Mobil&quot;&lt;/div&gt;" style="html=1;strokeWidth=2;shape=manualInput;whiteSpace=wrap;rounded=1;size=27;arcSize=11;align=center;" vertex="1" parent="WIyWlLk6GJQsqaUBKTNV-1">
          <mxGeometry x="300" y="730" width="100" height="80" as="geometry" />
        </mxCell>
        <mxCell id="RG922FBDrMQfjiyfUO0k-79" value="" style="edgeStyle=orthogonalEdgeStyle;rounded=0;orthogonalLoop=1;jettySize=auto;html=1;" edge="1" parent="WIyWlLk6GJQsqaUBKTNV-1" source="RG922FBDrMQfjiyfUO0k-77" target="RG922FBDrMQfjiyfUO0k-72">
          <mxGeometry relative="1" as="geometry" />
        </mxCell>
        <mxCell id="RG922FBDrMQfjiyfUO0k-77" value="Isi&lt;div&gt;&quot;Jumlah Penumpang&quot;&lt;/div&gt;" style="html=1;strokeWidth=2;shape=manualInput;whiteSpace=wrap;rounded=1;size=27;arcSize=11;align=center;" vertex="1" parent="WIyWlLk6GJQsqaUBKTNV-1">
          <mxGeometry x="300" y="630" width="100" height="80" as="geometry" />
        </mxCell>
        <mxCell id="RG922FBDrMQfjiyfUO0k-95" value="" style="edgeStyle=orthogonalEdgeStyle;rounded=0;orthogonalLoop=1;jettySize=auto;html=1;" edge="1" parent="WIyWlLk6GJQsqaUBKTNV-1" source="RG922FBDrMQfjiyfUO0k-80" target="RG922FBDrMQfjiyfUO0k-40">
          <mxGeometry relative="1" as="geometry" />
        </mxCell>
        <mxCell id="RG922FBDrMQfjiyfUO0k-80" value="Hasil pencarian" style="strokeWidth=2;html=1;shape=mxgraph.flowchart.display;whiteSpace=wrap;" vertex="1" parent="WIyWlLk6GJQsqaUBKTNV-1">
          <mxGeometry x="464" y="210" width="100" height="60" as="geometry" />
        </mxCell>
        <mxCell id="RG922FBDrMQfjiyfUO0k-87" value="yes" style="edgeStyle=orthogonalEdgeStyle;rounded=0;orthogonalLoop=1;jettySize=auto;html=1;" edge="1" parent="WIyWlLk6GJQsqaUBKTNV-1" source="RG922FBDrMQfjiyfUO0k-83" target="RG922FBDrMQfjiyfUO0k-80">
          <mxGeometry relative="1" as="geometry" />
        </mxCell>
        <mxCell id="RG922FBDrMQfjiyfUO0k-89" value="no" style="edgeStyle=orthogonalEdgeStyle;rounded=0;orthogonalLoop=1;jettySize=auto;html=1;" edge="1" parent="WIyWlLk6GJQsqaUBKTNV-1" source="RG922FBDrMQfjiyfUO0k-83" target="RG922FBDrMQfjiyfUO0k-88">
          <mxGeometry relative="1" as="geometry" />
        </mxCell>
        <mxCell id="RG922FBDrMQfjiyfUO0k-83" value="Hasil ditemukan" style="strokeWidth=2;html=1;shape=mxgraph.flowchart.decision;whiteSpace=wrap;" vertex="1" parent="WIyWlLk6GJQsqaUBKTNV-1">
          <mxGeometry x="474" y="90" width="80" height="80" as="geometry" />
        </mxCell>
        <mxCell id="RG922FBDrMQfjiyfUO0k-84" value="B" style="verticalLabelPosition=bottom;verticalAlign=top;html=1;shape=mxgraph.flowchart.on-page_reference;" vertex="1" parent="WIyWlLk6GJQsqaUBKTNV-1">
          <mxGeometry x="330" y="1070" width="40" height="40" as="geometry" />
        </mxCell>
        <mxCell id="RG922FBDrMQfjiyfUO0k-86" value="" style="edgeStyle=orthogonalEdgeStyle;rounded=0;orthogonalLoop=1;jettySize=auto;html=1;" edge="1" parent="WIyWlLk6GJQsqaUBKTNV-1" source="RG922FBDrMQfjiyfUO0k-85" target="RG922FBDrMQfjiyfUO0k-83">
          <mxGeometry relative="1" as="geometry" />
        </mxCell>
        <mxCell id="RG922FBDrMQfjiyfUO0k-85" value="B" style="verticalLabelPosition=bottom;verticalAlign=top;html=1;shape=mxgraph.flowchart.on-page_reference;" vertex="1" parent="WIyWlLk6GJQsqaUBKTNV-1">
          <mxGeometry x="494" y="10" width="40" height="40" as="geometry" />
        </mxCell>
        <mxCell id="RG922FBDrMQfjiyfUO0k-91" value="" style="edgeStyle=orthogonalEdgeStyle;rounded=0;orthogonalLoop=1;jettySize=auto;html=1;" edge="1" parent="WIyWlLk6GJQsqaUBKTNV-1" source="RG922FBDrMQfjiyfUO0k-88" target="RG922FBDrMQfjiyfUO0k-90">
          <mxGeometry relative="1" as="geometry" />
        </mxCell>
        <mxCell id="RG922FBDrMQfjiyfUO0k-88" value="Tidak ditemukan" style="strokeWidth=2;html=1;shape=mxgraph.flowchart.display;whiteSpace=wrap;" vertex="1" parent="WIyWlLk6GJQsqaUBKTNV-1">
          <mxGeometry x="634" y="100" width="100" height="60" as="geometry" />
        </mxCell>
        <mxCell id="RG922FBDrMQfjiyfUO0k-97" value="" style="edgeStyle=orthogonalEdgeStyle;rounded=0;orthogonalLoop=1;jettySize=auto;html=1;" edge="1" parent="WIyWlLk6GJQsqaUBKTNV-1" source="RG922FBDrMQfjiyfUO0k-90" target="RG922FBDrMQfjiyfUO0k-94">
          <mxGeometry relative="1" as="geometry" />
        </mxCell>
        <mxCell id="RG922FBDrMQfjiyfUO0k-90" value="Cari lagi" style="rhombus;whiteSpace=wrap;html=1;strokeWidth=2;" vertex="1" parent="WIyWlLk6GJQsqaUBKTNV-1">
          <mxGeometry x="644" y="200" width="80" height="80" as="geometry" />
        </mxCell>
        <mxCell id="RG922FBDrMQfjiyfUO0k-94" value="C" style="verticalLabelPosition=bottom;verticalAlign=top;html=1;shape=mxgraph.flowchart.on-page_reference;" vertex="1" parent="WIyWlLk6GJQsqaUBKTNV-1">
          <mxGeometry x="664" y="330" width="40" height="40" as="geometry" />
        </mxCell>
        <mxCell id="RG922FBDrMQfjiyfUO0k-96" value="no" style="edgeStyle=orthogonalEdgeStyle;rounded=0;orthogonalLoop=1;jettySize=auto;html=1;exitX=0;exitY=0.5;exitDx=0;exitDy=0;entryX=1;entryY=0.5;entryDx=0;entryDy=0;entryPerimeter=0;" edge="1" parent="WIyWlLk6GJQsqaUBKTNV-1" source="RG922FBDrMQfjiyfUO0k-90" target="RG922FBDrMQfjiyfUO0k-40">
          <mxGeometry relative="1" as="geometry" />
        </mxCell>
        <mxCell id="RG922FBDrMQfjiyfUO0k-99" style="edgeStyle=orthogonalEdgeStyle;rounded=0;orthogonalLoop=1;jettySize=auto;html=1;exitX=0.5;exitY=1;exitDx=0;exitDy=0;exitPerimeter=0;entryX=1;entryY=0.5;entryDx=0;entryDy=0;" edge="1" parent="WIyWlLk6GJQsqaUBKTNV-1" source="RG922FBDrMQfjiyfUO0k-98" target="RG922FBDrMQfjiyfUO0k-6">
          <mxGeometry relative="1" as="geometry" />
        </mxCell>
        <mxCell id="RG922FBDrMQfjiyfUO0k-98" value="C" style="verticalLabelPosition=bottom;verticalAlign=top;html=1;shape=mxgraph.flowchart.on-page_reference;" vertex="1" parent="WIyWlLk6GJQsqaUBKTNV-1">
          <mxGeometry x="210" y="220" width="40" height="40" as="geometry" />
        </mxCell>
      </root>
    </mxGraphModel>
  </diagram>
</mxfile>
